# AST/ASF file generated using VICON BodyLanguage
# -----------------------------------------------
:version 1.10
:name VICON
:units
  mass 1.0
  length 0.45
  angle deg
:documentation
   .ast/.asf automatically generated from VICON data using
   VICON BodyBuilder and BodyLanguage model FoxedUp or BRILLIANT.MOD
:root
   order TX TY TZ RX RY RZ
   axis XYZ
   position 0 0 0  
   orientation 0 0 0 
:bonedata
  begin
     id 1 
     name lhipjoint
     direction 0.610259 -0.730986 0.305356 
     length 2.50941 
     axis 0 0 0  XYZ
  end
  begin
     id 2 
     name lfemur
     direction 0.34202 -0.939693 0  
     length 7.48822  
     axis 0 0 20  XYZ
    dof rx ry rz
    limits (-160.0 20.0)
           (-70.0 70.0)
           (-60.0 70.0)
  end
  begin
     id 3 
     name ltibia
     direction 0.34202 -0.939693 0   
     length 7.60141   
     axis 0 0 20   XYZ
    dof rx
    limits (-10.0 170.0)
  end
  begin
     id 4 
     name lfoot
     direction 0.0673488 -0.185039 0.980421   
     length 2.04049   
     axis -90 7.62852e-016 20   XYZ
    dof rx rz
    limits (-45.0 90.0)
           (-70.0 20.0)
  end
  begin
     id 5 
     name ltoes
     direction 1.5356e-011 -4.21729e-011 1   
     length 1.02897   
     axis -90 7.62852e-016 20   XYZ
    dof rx
    limits (-90.0 20.0)
  end
  begin
     id 6 
     name rhipjoint
     direction -0.57612 -0.754205 0.315056   
     length 2.43216  
     axis 0 0 0  XYZ 
  end
  begin
     id 7 
     name rfemur
     direction -0.34202 -0.939693 0   
     length 7.42799   
     axis 0 0 -20   XYZ
    dof rx ry rz
    limits (-160.0 20.0)
           (-70.0 70.0)
           (-70.0 60.0)
  end
  begin
     id 8 
     name rtibia
     direction -0.34202 -0.939693 0   
     length 7.69484   
     axis 0 0 -20   XYZ
    dof rx
    limits (-10.0 170.0)
 end
 begin
     id 9 
     name rfoot
     direction -0.111837 -0.30727 0.945028   
     length 2.15769  
     axis -90 -7.62852e-016 -20   XYZ
    dof rx rz
    limits (-45.0 90.0)
           (-20.0 70.0)
  end
  begin
     id 10 
     name rtoes
     direction -1.53539e-011 -4.21878e-011 1   
     length 1.07391   
     axis -90 -7.62852e-016 -20   XYZ
    dof rx
    limits (-90.0 20.0)
  end
  begin
     id 11 
     name lowerback
     direction 0.00552624 0.990109 -0.140195   
     length 2.12403   
     axis 0 0 0   XYZ
    dof rx ry rz
    limits (-20.0 45.0)
           (-30.0 30.0)
           (-30.0 30.0)
  end
  begin
     id 12 
     name upperback
     direction 0.00361898 0.999976 -0.00584723   
     length 2.13232   
     axis 0 0 0   XYZ
    dof rx ry rz
    limits (-20.0 45.0)
           (-30.0 30.0)
           (-30.0 30.0)
  end
  begin
     id 13 
     name thorax
     direction -0.000331275 0.998253 0.0590847   
     length 2.17688   
     axis 0 0 0   XYZ
    dof rx ry rz
    limits (-20.0 45.0)
           (-30.0 30.0)
           (-30.0 30.0)
  end
  begin
     id 14 
     name lowerneck
     direction -0.0561561 0.979832 0.19177   
     length 1.64159   
     axis 0 0 0   XYZ
    dof rx ry rz
    limits (-20.0 45.0)
           (-30.0 30.0)
           (-30.0 30.0)
  end
  begin
     id 15 
     name upperneck
     direction 0.0827153 0.979385 -0.184293   
     length 1.68939   
     axis 0 0 0   XYZ
    dof rx ry rz
    limits (-20.0 45.0)
           (-30.0 30.0)
           (-30.0 30.0)
  end
  begin
     id 16
     name head
     direction 0.0278583 0.995936 -0.0856488  
     length 1.70207  
     axis 0 0 0   XYZ
    dof rx ry rz
    limits (-20.0 45.0)
           (-30.0 30.0)
           (-30.0 30.0)
  end
  begin
     id 17 
     name lclavicle
     direction 0.950993 0.301131 -0.0702275  
     length 3.41652  
     axis 0 0 0   XYZ
    dof ry rz
    limits (-20.0 10.0)
           (0.0 20.0)
  end
  begin
     id 18 
     name lhumerus
     direction 1 -4.48981e-011 -3.9662e-029   
     length 5.32955   
     axis 180 -30 -90   XYZ
    dof rx ry rz
    limits (-60.0 90.0)
           (-90.0 90.0)
           (-90.0 90.0)
  end
  begin
     id 19
     name lradius
     direction 1 -4.48925e-011 -9.0549e-027   
     length 3.69232   
     axis 180 -30 -90   XYZ
    dof rx
    limits (-10.0 170.0)
  end
  begin
     id 20
     name lwrist
     direction 1 -4.49007e-011 -1.49005e-026   
     length 1.84616   
     axis 9.0955e-015 90 90   XYZ
    dof ry
    limits (-180.0 0.0)
 end
  begin
     id 21 
     name lhand
     direction 1 -4.49016e-011 -2.98023e-026   
     length 0.536598   
     axis 1.90115e-014 90 90   XYZ
    dof rx rz
    limits (-90.0 90.0)
           (-45.0 45.0)
  end
  begin
     id 22 
     name lfingers
     direction 1 -4.48924e-011 -5.9578e-026   
     length 0.432619   
     axis 3.80223e-014 90 90   XYZ
    dof rx
    limits (0.0 90.0)
  end
  begin
     id 23
     name lthumb
     direction 0.707107 -6.34947e-011 0.707107   
     length 0.621157   
     axis -90 45 -3.84942e-014   XYZ
    dof rx rz
    limits (-45.0 45.0)
           (-45.0 45.0)
  end
  begin
     id 24 
     name rclavicle
     direction -0.955495 0.276497 -0.102848   
     length 3.36357  
     axis 0 0 0   XYZ 
    dof ry rz
    limits (-10.0 20.0)
           (-20.0 0.0)
  end
  begin
     id 25 
     name rhumerus
     direction -1 -4.48961e-011 3.30983e-027  
     length 5.23431   
     axis 180 30 90   XYZ
    dof rx ry rz
    limits (-90.0 60.0)
           (-90.0 90.0)
           (-90.0 90.0)
  end
  begin
     id 26 
     name rradius
     direction -1 -4.48965e-011 -6.63263e-027   
     length 3.55301   
     axis 180 30 90   XYZ
    dof rx
    limits (-10.0 170.0)
  end
  begin
     id 27 
     name rwrist
     direction -1 -4.48942e-011 -1.48958e-026   
     length 1.77651   
     axis 9.0955e-015 -90 -90   XYZ
    dof ry
    limits (-180.0 0.0)
  end
  begin
     id 28
     name rhand
     direction -1 -4.48977e-011 -2.97966e-026   
     length 0.772522   
     axis 1.90115e-014 -90 -90   XYZ
    dof rx rz
    limits (-90.0 90.0)
           (-45.0 45.0)
  end
  begin
     id 29
     name rfingers
     direction -1 -4.49135e-011 -5.96389e-026   
     length 0.622827   
     axis 3.80223e-014 -90 -90   XYZ
    dof rx
    limits (0.0 90.0)
  end
  begin
     id 30
     name rthumb
     direction -0.707107 -6.34969e-011 0.707107   
     length 0.894259   
     axis -90 -45 3.84942e-014   XYZ
    dof rx rz
    limits (-45.0 45.0)
           (-45.0 45.0)
  end
:hierarchy
  begin
    root lhipjoint rhipjoint lowerback
    lhipjoint lfemur
    lfemur ltibia
    ltibia lfoot
    lfoot ltoes
    rhipjoint rfemur
    rfemur rtibia
    rtibia rfoot
    rfoot rtoes
    lowerback upperback
    upperback thorax
    thorax lowerneck lclavicle rclavicle
    lowerneck upperneck
    upperneck head
    lclavicle lhumerus
    lhumerus lradius
    lradius lwrist
    lwrist lhand lthumb
    lhand lfingers
    rclavicle rhumerus
    rhumerus rradius
    rradius rwrist
    rwrist rhand rthumb
    rhand rfingers
  end

#!OML:ASF F:\VICON\USERDATA\INSTALL\rory3\rory3.ASF
:FULLY-SPECIFIED
:DEGREES
32
root -10.9675 17.7024 -8.5537 -2.6717 -2.14637 6.63171
lowerback 10.6289 0.218375 -6.90779
upperback 1.69152 -0.534214 -0.79447
thorax -4.13659 -0.172368 3.13409
lowerneck -14.8564 -3.53956 -11.8376
upperneck 38.5582 -4.0384 6.28401
head 16.9029 -2.57483 4.18891
rclavicle 1.28962e-014 1.82882e-014
rhumerus -37.2485 -13.1666 -80.2053
rradius 31.7429
rwrist 6.05847
rhand -14.2574 9.89023
rfingers 7.12502
rthumb 11.8809 -19.7527
lclavicle 1.28962e-014 1.82882e-014
lhumerus -26.5431 2.20615 83.8829
lradius 29.4077
lwrist -8.30264
lhand -20.185 25.7256
lfingers 7.12502
lthumb 6.1612 55.616
rfemur -26.3733 -7.06434 13.692
rtibia 53.6403
rfoot -9.79617 -9.08687
rtoes 5.82381
lfemur 0.862306 3.42975 -30.323
ltibia 16.0371
lfoot -10.3916 -8.10403
ltoes 1.50488
33
root -10.9728 17.6999 -8.43027 -2.57158 -2.10124 6.86381
lowerback 10.598 0.16769 -7.18865
upperback 1.62872 -0.635547 -0.834577
thorax -4.17213 -0.215912 3.2637
lowerneck -14.824 -3.53301 -11.8506
upperneck 38.5187 -4.02765 6.27887
head 16.872 -2.5729 4.18863
rclavicle -1.27222e-014 -3.57812e-015
rhumerus -37.5282 -13.1733 -80.0892
rradius 31.5903
rwrist 6.05199
rhand -14.0813 9.71948
rfingers 7.12502
rthumb 12.0508 -19.9135
lclavicle -1.27222e-014 -3.57812e-015
lhumerus -26.1718 1.91811 83.8987
lradius 29.8355
lwrist -8.20352
lhand -19.1791 27.7104
lfingers 7.12502
lthumb 7.13222 57.5702
rfemur -26.823 -6.85242 13.4756
rtibia 51.6966
rfoot -9.67347 -9.51765
rtoes 6.23888
lfemur 1.4499 3.40606 -30.5699
ltibia 15.5559
lfoot -10.4136 -8.1645
ltoes 2.34128
34
root -10.9755 17.6921 -8.30441 -2.44815 -2.04764 7.00463
lowerback 10.5002 0.0786646 -7.32708
upperback 1.5917 -0.76311 -0.851484
thorax -4.14116 -0.277168 3.34024
lowerneck -14.8013 -3.50211 -11.8984
upperneck 38.4014 -3.96957 6.28925
head 16.7965 -2.55177 4.20673
rclavicle -6.85807e-015 -2.50469e-014
rhumerus -37.7132 -13.1536 -80.0254
rradius 31.4661
rwrist 6.05705
rhand -13.9912 9.5652
rfingers 7.12502
rthumb 12.1376 -20.0627
lclavicle -6.85807e-015 -2.50469e-014
lhumerus -25.8034 1.68708 83.9274
lradius 30.2935
lwrist -7.80376
lhand -19.6053 27.9037
lfingers 7.12502
lthumb 6.7209 57.7771
rfemur -27.2233 -6.7542 13.3792
rtibia 49.6482
rfoot -9.33962 -10.039
rtoes 6.25816
lfemur 2.05946 3.28322 -30.738
ltibia 14.9917
lfoot -10.4945 -7.96373
ltoes 2.24688
35
root -10.9868 17.6853 -8.18041 -2.34863 -2.071 6.89291
lowerback 10.3924 0.0109001 -7.29766
upperback 1.59851 -0.837157 -0.797663
thorax -4.0653 -0.316737 3.38881
lowerneck -14.8168 -3.46448 -11.8392
upperneck 38.2875 -3.90018 6.22099
head 16.7251 -2.52015 4.17173
rclavicle -2.13694e-015 -1.35174e-014
rhumerus -37.7743 -13.3019 -79.9773
rradius 31.3142
rwrist 6.18062
rhand -14.1387 9.09956
rfingers 7.12502
rthumb 11.9954 -20.5367
lclavicle -2.13694e-015 -1.35174e-014
lhumerus -25.3736 1.2573 83.9951
lradius 30.7219
lwrist -7.1271
lhand -21.0678 26.8659
lfingers 7.12502
lthumb 5.30893 56.7794
rfemur -27.5611 -6.42678 13.5838
rtibia 47.5741
rfoot -9.09845 -10.6173
rtoes 6.53802
lfemur 2.87587 3.21482 -30.5951
ltibia 14.0228
lfoot -10.4561 -7.85875
ltoes 1.60764
36
root -10.9944 17.6945 -8.05768 -2.21119 -2.15028 6.86748
lowerback 10.2417 -0.0269916 -7.30117
upperback 1.62908 -0.872535 -0.790565
thorax -3.94514 -0.33922 3.40065
lowerneck -15.0572 -3.46045 -11.7484
upperneck 38.2995 -3.87449 6.1726
head 16.7838 -2.50081 4.13865
rclavicle 1.12562e-014 -7.95139e-016
rhumerus -37.7473 -13.534 -79.9035
rradius 31.0484
rwrist 6.32234
rhand -14.204 8.59073
rfingers 7.12502
rthumb 11.9324 -21.0492
lclavicle 1.12562e-014 -7.95139e-016
lhumerus -24.8626 0.795003 84.0465
lradius 31.141
lwrist -6.67136
lhand -21.2051 27.1598
lfingers 7.12502
lthumb 5.17628 57.0766
rfemur -27.8783 -6.02391 13.5904
rtibia 45.3974
rfoot -8.71229 -10.8034
rtoes 9.22116
lfemur 3.52381 3.20365 -30.568
ltibia 13.3139
lfoot -10.4975 -7.71084
ltoes 0.664835
37
root -11.0007 17.7161 -7.92693 -2.12189 -2.12607 7.12485
lowerback 10.1647 -0.0657721 -7.57072
upperback 1.59166 -0.950399 -0.838062
thorax -3.92919 -0.373969 3.51142
lowerneck -15.0814 -3.43443 -11.8597
upperneck 38.2819 -3.83099 6.26508
head 16.7806 -2.48642 4.20831
rclavicle 3.95085e-015 -3.97569e-016
rhumerus -37.9077 -13.813 -79.698
rradius 30.7824
rwrist 6.561
rhand -14.1763 8.18369
rfingers 7.12502
rthumb 11.9591 -21.4547
lclavicle 3.95085e-015 -3.97569e-016
lhumerus -24.4819 0.51614 84.085
lradius 31.4947
lwrist -6.50289
lhand -20.7648 27.9116
lfingers 7.12502
lthumb 5.60146 57.8175
rfemur -28.0403 -5.69731 13.1917
rtibia 43.1839
rfoot -8.04008 -10.6511
rtoes 12.1075
lfemur 4.18627 3.25763 -30.8272
ltibia 12.722
lfoot -10.5464 -7.69117
ltoes 0.380228
38
root -11.0076 17.687 -7.79905 -2.06625 -2.12476 7.18808
lowerback 10.1496 -0.130653 -7.62404
upperback 1.57545 -1.04235 -0.853726
thorax -3.9265 -0.418467 3.5367
lowerneck -15.0966 -3.38828 -11.7963
upperneck 38.2308 -3.74864 6.18774
head 16.7411 -2.45221 4.17387
rclavicle -1.01877e-015 -1.27222e-014
rhumerus -38.0988 -14.0292 -79.548
rradius 30.5566
rwrist 6.74546
rhand -14.2142 8.07104
rfingers 7.12502
rthumb 11.9225 -21.5695
lclavicle -1.01877e-015 -1.27222e-014
lhumerus -24.1558 0.333333 84.021
lradius 31.9557
lwrist -6.39621
lhand -20.8077 28.0432
lfingers 7.12502
lthumb 5.56002 57.9503
rfemur -28.2293 -5.52726 13.1593
rtibia 40.784
rfoot -6.34626 -10.7012
rtoes 9.31469
lfemur 4.97048 3.32423 -30.8825
ltibia 11.9699
lfoot -10.5336 -7.66993
ltoes 0.055323
39
root -11.0164 17.6748 -7.67735 -1.98883 -2.17735 7.01098
lowerback 10.0929 -0.183998 -7.44154
upperback 1.63405 -1.08388 -0.826521
thorax -3.83143 -0.446324 3.46674
lowerneck -15.3368 -3.38816 -11.6596
upperneck 38.2498 -3.74917 6.14824
head 16.8056 -2.43618 4.13233
rclavicle 1.0312e-014 1.27222e-014
rhumerus -38.1197 -14.5327 -79.3076
rradius 30.04
rwrist 7.19582
rhand -14.3801 8.7541
rfingers 7.12502
rthumb 11.7626 -20.8956
lclavicle 1.0312e-014 1.27222e-014
lhumerus -23.6967 0.00538 83.9459
lradius 32.4927
lwrist -6.18524
lhand -20.7893 27.7323
lfingers 7.12502
lthumb 5.57775 57.6388
rfemur -28.3623 -5.13148 13.3488
rtibia 38.3667
rfoot -5.01107 -10.7093
rtoes 10.371
lfemur 5.6976 3.32759 -30.6735
ltibia 11.2524
lfoot -10.4463 -7.61673
ltoes -0.134929
40
root -11.0257 17.6777 -7.55116 -1.92497 -2.19744 6.93326
lowerback 10.0684 -0.232871 -7.36068
upperback 1.63494 -1.13711 -0.812796
thorax -3.81213 -0.474351 3.44211
lowerneck -15.3936 -3.37329 -11.6054
upperneck 38.2309 -3.73915 6.14957
head 16.806 -2.42321 4.12415
rclavicle -2.25372e-014 -2.78299e-014
rhumerus -38.2482 -14.8298 -79.1201
rradius 29.5847
rwrist 6.91978
rhand -14.4755 9.53346
rfingers 7.12502
rthumb 11.6706 -20.1215
lclavicle -2.25372e-014 -2.78299e-014
lhumerus -23.3548 -0.373559 83.9411
lradius 32.9446
lwrist -5.79826
lhand -20.7288 27.472
lfingers 7.12502
lthumb 5.63622 57.377
rfemur -28.3346 -4.69794 13.3535
rtibia 35.8405
rfoot -3.77442 -10.4951
rtoes 13.1548
lfemur 6.18133 3.19971 -30.5902
ltibia 11.0782
lfoot -10.5473 -7.40888
ltoes 0.404897
41
root -11.0361 17.6813 -7.42261 -1.87977 -2.19017 7.03229
lowerback 10.0531 -0.277354 -7.50861
upperback 1.61083 -1.21085 -0.790642
thorax -3.81693 -0.508027 3.55767
lowerneck -15.3892 -3.37462 -11.7368
upperneck 38.2246 -3.72541 6.21653
head 16.8062 -2.42833 4.18057
rclavicle 3.23025e-015 -5.56597e-015
rhumerus -38.4176 -14.8391 -79.0138
rradius 29.3107
rwrist 6.02239
rhand -14.5127 9.24839
rfingers 7.12502
rthumb 11.6347 -20.4086
lclavicle 3.23025e-015 -5.56597e-015
lhumerus -23.1788 -0.586285 83.9633
lradius 33.4414
lwrist -5.67531
lhand -20.55 27.1678
lfingers 7.12502
lthumb 5.80881 57.0681
rfemur -28.28 -4.15262 13.095
rtibia 33.4547
rfoot -2.80221 -10.1603
rtoes 13.859
lfemur 6.82432 3.25522 -30.6755
ltibia 10.6128
lfoot -10.6688 -7.25659
ltoes -0.172886
42
root -11.0477 17.6806 -7.29155 -1.90225 -2.17042 7.06436
lowerback 10.0094 -0.359746 -7.55413
upperback 1.68238 -1.31749 -0.795334
thorax -3.70401 -0.566331 3.59004
lowerneck -15.3918 -3.356 -11.7564
upperneck 38.1079 -3.68967 6.2202
head 16.7398 -2.41282 4.18645
rclavicle 8.52289e-015 7.55382e-015
rhumerus -38.349 -15.2439 -78.8358
rradius 28.7747
rwrist 6.20189
rhand -14.7218 8.80864
rfingers 7.12502
rthumb 11.4331 -20.8596
lclavicle 8.52289e-015 7.55382e-015
lhumerus -22.87 -0.700665 83.8559
lradius 33.9048
lwrist -5.61696
lhand -20.4979 26.085
lfingers 7.12502
lthumb 5.8591 55.984
rfemur -28.1074 -3.45094 12.8575
rtibia 31.1825
rfoot -2.36024 -9.89039
rtoes 12.0133
lfemur 7.59686 2.9425 -30.7191
ltibia 9.98926
lfoot -10.6369 -6.74598
ltoes -2.34708
